<?xml version="1.0" encoding="utf-8"?>
<!-- Generator: Adobe Illustrator 20.1.0, SVG Export Plug-In . SVG Version: 6.00 Build 0)  -->
<svg version="1.1" xmlns="http://www.w3.org/2000/svg" xmlns:xlink="http://www.w3.org/1999/xlink" x="0px" y="0px"
	 viewBox="0 0 1190.6 841.9" style="enable-background:new 0 0 1190.6 841.9;" xml:space="preserve">
<style type="text/css">
	.st0{fill:#210E3A;}
	.st1{font-family:'BellMT';}
	.st2{font-size:253.3946px;}
	.st3{fill:#00A79D;}
	.st4{fill:#23533F;}
</style>
<g id="Layer_1">
</g>
<g id="Layer_2">
	<g>
		<polyline class="st0" points="286,341 286,518 296,518 296,341 		"/>
		<polyline class="st0" points="506.5,508 293.5,508 293.5,518 506.5,518 		"/>
		<polyline class="st0" points="456.6,490.7 501.5,516.7 506.5,508 461.6,482.1 		"/>
		<polyline class="st0" points="462.1,543.9 506.5,518 501.5,509.4 457.1,535.3 		"/>
		<text transform="matrix(1.0727 0 0 1.0394 319.1782 474.5496)" class="st1 st2">unite</text>
		<line class="st3" x1="890.1" y1="333.1" x2="890.1" y2="518"/>
		<polyline class="st4" points="885.1,333.1 885.1,518 895.1,518 895.1,333.1 		"/>
		<line class="st3" x1="535.6" y1="513" x2="886.3" y2="513"/>
		<polyline class="st4" points="535.6,518 886.3,518 886.3,508 535.6,508 		"/>
		<line class="st3" x1="583" y1="486.4" x2="538.1" y2="512.3"/>
		<polyline class="st4" points="580.5,482.1 535.6,508 540.6,516.7 585.5,490.7 		"/>
		<line class="st3" x1="582.5" y1="539.6" x2="538.1" y2="513.7"/>
		<polyline class="st4" points="585,535.3 540.6,509.4 535.6,518 580,543.9 		"/>
	</g>
</g>
</svg>
