<svg xmlns="http://www.w3.org/2000/svg" viewBox="0 0 1190.55 841.89"><defs><style>.cls-1,.cls-2,.cls-3,.cls-4{fill:#231f20;}.cls-1,.cls-4,.cls-5{stroke:#231f20;}.cls-1,.cls-3,.cls-4,.cls-5{stroke-miterlimit:10;}.cls-3{stroke:#000;}.cls-3,.cls-4,.cls-5{stroke-width:3px;}.cls-5,.cls-6{fill:none;}.cls-7{opacity:0.16;}.cls-8{fill:#fff;}</style></defs><title>unite2-01</title><g id="Layer_1" data-name="Layer 1"><path class="cls-1" d="M93,37.84c-18.48,0-33.46,15.21-33.46,34s15,34,33.46,34,33.46-15.21,33.46-34S111.46,37.84,93,37.84ZM93,97.1a25.3,25.3,0,1,1,24.92-25.3A25.11,25.11,0,0,1,93,97.1Z"/><ellipse class="cls-1" cx="92.98" cy="71.81" rx="14.47" ry="14.69"/><ellipse class="cls-2" cx="443.18" cy="22.07" rx="28.38" ry="28.81"/><ellipse class="cls-2" cx="929.05" cy="217.65" rx="6.69" ry="6.79"/><ellipse class="cls-2" cx="842.85" cy="-7.91" rx="23.29" ry="23.64"/><ellipse class="cls-3" cx="733.54" cy="104.34" rx="7.13" ry="7.24"/><ellipse class="cls-2" cx="444.77" cy="147.85" rx="11.77" ry="11.95"/><ellipse class="cls-4" cx="155.46" cy="376.83" rx="29.02" ry="29.46"/><ellipse class="cls-2" cx="279.35" cy="467.94" rx="5.89" ry="5.98"/><ellipse class="cls-2" cx="4.15" cy="366.85" rx="5.89" ry="5.98"/><ellipse class="cls-2" cx="37.33" cy="563.01" rx="6.83" ry="6.93"/><path class="cls-1" d="M904.17,70.77c-18.48,0-33.46,15.21-33.46,34s15,34,33.46,34,33.46-15.21,33.46-34S922.66,70.77,904.17,70.77Zm0,59.27a25.3,25.3,0,1,1,24.92-25.3A25.11,25.11,0,0,1,904.17,130Z"/><ellipse class="cls-1" cx="904.17" cy="104.74" rx="14.47" ry="14.69"/><path class="cls-1" d="M358,264.18a25.67,25.67,0,1,0,25.28,25.67A25.48,25.48,0,0,0,358,264.18ZM358,309a19.11,19.11,0,1,1,18.83-19.11A19,19,0,0,1,358,309Z"/><ellipse class="cls-1" cx="358.01" cy="289.85" rx="10.93" ry="11.1"/><path class="cls-1" d="M74.78,674.77c-18.48,0-33.46,15.21-33.46,34s15,34,33.46,34,33.46-15.21,33.46-34S93.26,674.77,74.78,674.77Zm0,59.27a25.3,25.3,0,1,1,24.92-25.3A25.11,25.11,0,0,1,74.78,734Z"/><ellipse class="cls-1" cx="74.78" cy="708.74" rx="14.47" ry="14.69"/><path class="cls-1" d="M217,176.89a17,17,0,1,0,16.73,17A16.86,16.86,0,0,0,217,176.89Zm0,29.63a12.65,12.65,0,1,1,12.46-12.65A12.55,12.55,0,0,1,217,206.52Z"/><ellipse class="cls-1" cx="216.97" cy="193.87" rx="7.23" ry="7.34"/><ellipse class="cls-2" cx="23.69" cy="224.71" rx="13.65" ry="13.85"/><ellipse class="cls-2" cx="254.63" cy="63.5" rx="6.29" ry="6.38"/><line class="cls-5" x1="92.98" y1="71.81" x2="-15.83" y2="-41.76"/><line class="cls-5" x1="254.63" y1="-50.17" x2="92.98" y2="71.81"/><line class="cls-5" x1="254.63" y1="63.5" x2="92.98" y2="71.81"/><line class="cls-5" x1="443.18" y1="22.07" x2="254.63" y2="63.5"/><line class="cls-5" x1="254.63" y1="-50.17" x2="443.18" y2="22.07"/><line class="cls-5" x1="216.97" y1="193.87" x2="92.98" y2="71.81"/><line class="cls-5" x1="23.69" y1="224.71" x2="92.98" y2="71.81"/><line class="cls-5" x1="4.15" y1="366.85" x2="23.69" y2="224.71"/><line class="cls-5" x1="155.46" y1="376.83" x2="4.15" y2="366.85"/><line class="cls-5" x1="155.46" y1="372.82" x2="216.97" y2="193.87"/><line class="cls-5" x1="358.01" y1="289.85" x2="216.97" y2="193.87"/><line class="cls-5" x1="279.35" y1="467.94" x2="155.46" y2="376.83"/><line class="cls-5" x1="37.33" y1="563.01" x2="155.46" y2="376.83"/><line class="cls-5" x1="74.78" y1="708.74" x2="37.33" y2="563.01"/><line class="cls-5" x1="318.16" y1="672.58" x2="279.35" y2="467.94"/><line class="cls-5" x1="74.78" y1="708.74" x2="318.16" y2="672.58"/><line class="cls-5" x1="444.77" y1="147.85" x2="358.01" y2="289.85"/><line class="cls-5" x1="444.77" y1="147.06" x2="443.18" y2="22.07"/><line class="cls-5" x1="358.01" y1="293.11" x2="279.35" y2="467.94"/><line class="cls-5" x1="610.36" y1="-34.68" x2="443.18" y2="22.07"/><line class="cls-5" x1="733.54" y1="104.34" x2="610.36" y2="-34.68"/><line class="cls-5" x1="929.05" y1="217.65" x2="904.17" y2="104.34"/><line class="cls-5" x1="902.55" y1="104.74" x2="733.54" y2="104.34"/><line class="cls-5" x1="102.07" y1="908.96" x2="74.78" y2="708.74"/><line class="cls-5" x1="-97.04" y1="802.57" x2="74.78" y2="708.74"/><line class="cls-5" x1="-168.43" y1="563.01" x2="37.33" y2="563.01"/><line class="cls-5" x1="-178.96" y1="454.35" x2="4.15" y2="366.85"/><line class="cls-5" x1="-188.06" y1="193.87" x2="23.69" y2="224.71"/><line class="cls-5" x1="-142.01" y1="108.67" x2="92.98" y2="71.81"/><line class="cls-5" x1="1072.58" y1="31.81" x2="992.59" y2="-60.49"/><line class="cls-5" x1="904.26" y1="104.74" x2="1072.58" y2="31.81"/><line class="cls-5" x1="842.85" y1="-7.91" x2="904.26" y2="104.74"/><line class="cls-5" x1="733.54" y1="104.34" x2="842.85" y2="-7.91"/><line class="cls-5" x1="929.05" y1="217.65" x2="1072.58" y2="31.81"/><line class="cls-5" x1="216.97" y1="193.87" x2="254.63" y2="63.5"/><line class="cls-5" x1="23.69" y1="224.71" x2="155.46" y2="376.83"/><line class="cls-5" x1="318.16" y1="672.58" x2="519.11" y2="873.53"/><line class="cls-5" x1="74.78" y1="708.74" x2="155.46" y2="376.83"/><line class="cls-5" x1="358.01" y1="293.11" x2="155.46" y2="376.83"/><line class="cls-5" x1="216.97" y1="193.87" x2="443.18" y2="147.85"/><path class="cls-4" d="M6.87,421.92a21.79,21.79,0,0,0,0,43.58,21.79,21.79,0,0,0,0-43.58Zm0,38a16.23,16.23,0,0,1,0-32.45,16.23,16.23,0,0,1,0,32.45Z"/><ellipse class="cls-4" cx="6.87" cy="443.71" rx="9.3" ry="9.42"/><line class="cls-5" x1="155.46" y1="376.83" x2="6.87" y2="443.71"/><line class="cls-5" x1="4.15" y1="366.85" x2="6.87" y2="443.71"/><line class="cls-5" x1="1072.58" y1="31.81" x2="1240.39" y2="22.07"/><line class="cls-5" x1="1072.58" y1="31.81" x2="1125.81" y2="-210.92"/><path class="cls-1" d="M1091,221.69c-10.47,0-19,8.83-19,19.72s8.49,19.72,19,19.72,19-8.83,19-19.72S1101.47,221.69,1091,221.69Zm0,34.4c-7.8,0-14.12-6.57-14.12-14.68s6.32-14.68,14.12-14.68,14.12,6.57,14.12,14.68S1098.8,256.09,1091,256.09Z"/><ellipse class="cls-1" cx="1091" cy="241.41" rx="8.2" ry="8.52"/><line class="cls-5" x1="929.05" y1="217.65" x2="1091" y2="241.41"/><line class="cls-5" x1="1092.35" y1="241.41" x2="1199.83" y2="215.28"/><line class="cls-5" x1="37.33" y1="563.01" x2="6.87" y2="443.71"/><line class="cls-5" x1="5.51" y1="444.39" x2="-136.84" y2="490.32"/><line class="cls-5" x1="443.18" y1="22.07" x2="482.26" y2="-208.74"/><path class="cls-1" d="M602.19,46.14a20.79,20.79,0,1,0,21.23,20.79A21,21,0,0,0,602.19,46.14Zm0,36.27A15.48,15.48,0,1,1,618,66.93,15.65,15.65,0,0,1,602.19,82.41Z"/><ellipse class="cls-1" cx="602.19" cy="66.93" rx="9.18" ry="8.99"/><line class="cls-5" x1="443.18" y1="22.07" x2="733.54" y2="104.34"/><line class="cls-5" x1="610.36" y1="-34.68" x2="602.19" y2="66.93"/><line class="cls-5" x1="254.63" y1="63.5" x2="444.77" y2="149.02"/><line class="cls-5" x1="23.69" y1="224.71" x2="216.97" y2="193.87"/><circle class="cls-2" cx="318.49" cy="672.11" r="24.97"/><circle class="cls-2" cx="1070.59" cy="30.87" r="18.68"/><line class="cls-6" x1="444.77" y1="147.85" x2="602.19" y2="66.93"/></g><g id="Layer_3" data-name="Layer 3"><g class="cls-7"><path class="cls-2" d="M1108.87,802.94c17.67,0,32-13.73,32-30.67s-14.32-30.67-32-30.67-32,13.73-32,30.67S1091.2,802.94,1108.87,802.94Zm0-53.51c13.16,0,23.82,10.22,23.82,22.84s-10.67,22.84-23.82,22.84S1085,784.88,1085,772.27,1095.71,749.43,1108.87,749.43Z"/><path class="cls-2" d="M1108.87,802.94v.5a33.09,33.09,0,0,0,23-9.12,30.28,30.28,0,0,0,0-44.09,33.47,33.47,0,0,0-45.93,0,30.28,30.28,0,0,0,0,44.09,33.09,33.09,0,0,0,23,9.12v-1a32.09,32.09,0,0,1-22.27-8.84,29.28,29.28,0,0,1,0-42.65,32.47,32.47,0,0,1,44.55,0,29.28,29.28,0,0,1,0,42.65,32.09,32.09,0,0,1-22.27,8.84Zm0-53.51v.5a23.77,23.77,0,0,1,16.5,6.55,21.68,21.68,0,0,1,0,31.58,24.05,24.05,0,0,1-33,0,21.68,21.68,0,0,1,0-31.58,23.77,23.77,0,0,1,16.5-6.55v-1a24.77,24.77,0,0,0-17.19,6.83,22.68,22.68,0,0,0,0,33,25.05,25.05,0,0,0,34.38,0,22.68,22.68,0,0,0,0-33,24.77,24.77,0,0,0-17.19-6.83Z"/><ellipse class="cls-2" cx="1108.87" cy="772.27" rx="13.83" ry="13.26"/><path class="cls-2" d="M1095,772.27h.5a12.45,12.45,0,0,1,3.9-9,13.75,13.75,0,0,1,18.87,0,12.37,12.37,0,0,1,0,18,13.75,13.75,0,0,1-18.87,0,12.45,12.45,0,0,1-3.9-9h-1a13.45,13.45,0,0,0,4.2,9.74,14.75,14.75,0,0,0,20.25,0,13.37,13.37,0,0,0,0-19.47,14.75,14.75,0,0,0-20.25,0,13.45,13.45,0,0,0-4.2,9.74Z"/><ellipse class="cls-2" cx="774.09" cy="817.17" rx="27.13" ry="26.01"/><ellipse class="cls-2" cx="309.6" cy="640.6" rx="6.4" ry="6.13"/><ellipse class="cls-2" cx="392.01" cy="844.24" rx="22.26" ry="21.35"/><ellipse class="cls-2" cx="496.51" cy="742.9" rx="6.82" ry="6.54"/><ellipse class="cls-2" cx="772.57" cy="703.62" rx="11.26" ry="10.79"/><ellipse class="cls-2" cx="1049.14" cy="496.89" rx="27.74" ry="26.59"/><ellipse class="cls-2" cx="930.71" cy="414.64" rx="5.63" ry="5.4"/><path class="cls-8" d="M925.08,414.64h1.5a3.77,3.77,0,0,1,1.19-2.73,4.3,4.3,0,0,1,5.89,0,3.74,3.74,0,0,1,0,5.47,4.3,4.3,0,0,1-5.89,0,3.77,3.77,0,0,1-1.19-2.73h-3a6.77,6.77,0,0,0,2.11,4.9,7.3,7.3,0,0,0,10,0,6.74,6.74,0,0,0,0-9.8,7.3,7.3,0,0,0-10,0,6.77,6.77,0,0,0-2.11,4.9Z"/><ellipse class="cls-2" cx="1193.79" cy="505.91" rx="5.63" ry="5.4"/><ellipse class="cls-2" cx="1162.07" cy="328.81" rx="6.53" ry="6.26"/><path class="cls-2" d="M333.39,711.87c-17.67,0-32,13.73-32,30.67s14.32,30.67,32,30.67,32-13.73,32-30.67S351.05,711.87,333.39,711.87Zm0,53.51c-13.16,0-23.82-10.22-23.82-22.84s10.67-22.84,23.82-22.84,23.82,10.22,23.82,22.84S346.54,765.37,333.39,765.37Z"/><path class="cls-2" d="M333.39,711.87v-.5a33.09,33.09,0,0,0-23,9.12,30.28,30.28,0,0,0,0,44.09,33.47,33.47,0,0,0,45.93,0,30.28,30.28,0,0,0,0-44.09,33.09,33.09,0,0,0-23-9.12v1a32.09,32.09,0,0,1,22.27,8.84,29.28,29.28,0,0,1,0,42.65,32.47,32.47,0,0,1-44.55,0,29.28,29.28,0,0,1,0-42.65,32.09,32.09,0,0,1,22.27-8.84Zm0,53.51v-.5a23.77,23.77,0,0,1-16.5-6.55,21.68,21.68,0,0,1,0-31.58,24.05,24.05,0,0,1,33,0,21.68,21.68,0,0,1,0,31.58,23.77,23.77,0,0,1-16.5,6.55v1A24.77,24.77,0,0,0,350.58,759a22.68,22.68,0,0,0,0-33,25.05,25.05,0,0,0-34.38,0,22.68,22.68,0,0,0,0,33,24.77,24.77,0,0,0,17.19,6.83Z"/><ellipse class="cls-2" cx="333.39" cy="742.54" rx="13.83" ry="13.26"/><path class="cls-2" d="M319.56,742.54h.5a12.45,12.45,0,0,1,3.9-9,13.75,13.75,0,0,1,18.87,0,12.37,12.37,0,0,1,0,18,13.75,13.75,0,0,1-18.87,0,12.45,12.45,0,0,1-3.9-9h-1a13.45,13.45,0,0,0,4.2,9.74,14.75,14.75,0,0,0,20.25,0,13.37,13.37,0,0,0,0-19.47,14.75,14.75,0,0,0-20.25,0,13.45,13.45,0,0,0-4.2,9.74Z"/><path class="cls-2" d="M855.51,598.59c13.35,0,24.17-10.37,24.17-23.17s-10.82-23.17-24.17-23.17-24.17,10.37-24.17,23.17S842.17,598.59,855.51,598.59Zm0-40.43c9.94,0,18,7.73,18,17.25s-8.06,17.25-18,17.25-18-7.73-18-17.25S845.57,558.17,855.51,558.17Z"/><path class="cls-2" d="M855.51,598.59v.5A25.13,25.13,0,0,0,873,592.16a23,23,0,0,0,0-33.49,25.41,25.41,0,0,0-34.87,0,23,23,0,0,0,0,33.49,25.13,25.13,0,0,0,17.44,6.93v-1a24.13,24.13,0,0,1-16.74-6.65,22,22,0,0,1,0-32,24.41,24.41,0,0,1,33.49,0,22,22,0,0,1,0,32,24.13,24.13,0,0,1-16.74,6.65Zm0-40.43v.5a17.84,17.84,0,0,1,12.38,4.91,16.25,16.25,0,0,1,0,23.68,18.05,18.05,0,0,1-24.76,0,16.25,16.25,0,0,1,0-23.68,17.84,17.84,0,0,1,12.38-4.91v-1a18.84,18.84,0,0,0-13.07,5.19,17.25,17.25,0,0,0,0,25.12,19.05,19.05,0,0,0,26.14,0,17.25,17.25,0,0,0,0-25.12,18.84,18.84,0,0,0-13.07-5.19Z"/><ellipse class="cls-2" cx="855.51" cy="575.42" rx="10.45" ry="10.02"/><path class="cls-2" d="M845.07,575.42h.5a9.28,9.28,0,0,1,2.91-6.72,10.27,10.27,0,0,1,14.08,0,9.23,9.23,0,0,1,0,13.44,10.27,10.27,0,0,1-14.08,0,9.28,9.28,0,0,1-2.91-6.72h-1a10.28,10.28,0,0,0,3.21,7.44,11.27,11.27,0,0,0,15.47,0,10.23,10.23,0,0,0,0-14.89,11.27,11.27,0,0,0-15.47,0,10.28,10.28,0,0,0-3.21,7.44Z"/><path class="cls-2" d="M1126.27,227.91c17.67,0,32-13.73,32-30.67s-14.32-30.67-32-30.67-32,13.73-32,30.67S1108.6,227.91,1126.27,227.91Zm0-53.51c13.16,0,23.82,10.22,23.82,22.84s-10.67,22.84-23.82,22.84-23.82-10.22-23.82-22.84S1113.11,174.41,1126.27,174.41Z"/><path class="cls-2" d="M1126.27,227.91v.5a33.09,33.09,0,0,0,23-9.12,30.28,30.28,0,0,0,0-44.09,33.47,33.47,0,0,0-45.93,0,30.28,30.28,0,0,0,0,44.09,33.09,33.09,0,0,0,23,9.12v-1a32.09,32.09,0,0,1-22.27-8.84,29.28,29.28,0,0,1,0-42.65,32.47,32.47,0,0,1,44.55,0,29.28,29.28,0,0,1,0,42.65,32.09,32.09,0,0,1-22.27,8.84Zm0-53.51v.5a23.77,23.77,0,0,1,16.5,6.55,21.68,21.68,0,0,1,0,31.58,24.05,24.05,0,0,1-33,0,21.68,21.68,0,0,1,0-31.58,23.77,23.77,0,0,1,16.5-6.55v-1a24.77,24.77,0,0,0-17.19,6.83,22.68,22.68,0,0,0,0,33,25.05,25.05,0,0,0,34.38,0,22.68,22.68,0,0,0,0-33,24.77,24.77,0,0,0-17.19-6.83Z"/><ellipse class="cls-2" cx="1126.27" cy="197.24" rx="13.83" ry="13.26"/><path class="cls-2" d="M1112.44,197.24h.5a12.45,12.45,0,0,1,3.9-9,13.75,13.75,0,0,1,18.87,0,12.37,12.37,0,0,1,0,18,13.75,13.75,0,0,1-18.87,0,12.45,12.45,0,0,1-3.9-9h-1a13.45,13.45,0,0,0,4.2,9.74,14.75,14.75,0,0,0,20.25,0,13.37,13.37,0,0,0,0-19.47,14.75,14.75,0,0,0-20.25,0,13.45,13.45,0,0,0-4.2,9.74Z"/><path class="cls-2" d="M990.34,677.4c8.83,0,16-6.87,16-15.33s-7.16-15.33-16-15.33-16,6.87-16,15.33S981.51,677.4,990.34,677.4Zm0-26.75a11.43,11.43,0,1,1-11.91,11.42A11.67,11.67,0,0,1,990.34,650.65Z"/><path class="cls-2" d="M990.34,677.4v.5a16.8,16.8,0,0,0,11.66-4.63,15.39,15.39,0,0,0,0-22.41,17,17,0,0,0-23.31,0,15.39,15.39,0,0,0,0,22.41,16.8,16.8,0,0,0,11.66,4.63v-1a15.8,15.8,0,0,1-11-4.35,14.39,14.39,0,0,1,0-21,16,16,0,0,1,21.93,0,14.39,14.39,0,0,1,0,21,15.8,15.8,0,0,1-11,4.35Zm0-26.75v.5a11.64,11.64,0,0,1,8.08,3.21,10.59,10.59,0,0,1,0,15.43,11.78,11.78,0,0,1-16.15,0,10.59,10.59,0,0,1,0-15.43,11.64,11.64,0,0,1,8.08-3.21v-1a12.64,12.64,0,0,0-8.77,3.48,11.59,11.59,0,0,0,0,16.87,12.78,12.78,0,0,0,17.54,0,11.59,11.59,0,0,0,0-16.87,12.64,12.64,0,0,0-8.77-3.48Z"/><ellipse class="cls-2" cx="990.34" cy="662.07" rx="6.91" ry="6.63"/><path class="cls-2" d="M983.43,662.07h.5a6,6,0,0,1,1.87-4.33,6.63,6.63,0,0,1,9.09,0,5.94,5.94,0,0,1,0,8.65,6.63,6.63,0,0,1-9.09,0,6,6,0,0,1-1.87-4.33h-1a7,7,0,0,0,2.18,5,7.63,7.63,0,0,0,10.47,0,6.94,6.94,0,0,0,0-10.1,7.63,7.63,0,0,0-10.47,0,7,7,0,0,0-2.18,5Z"/><ellipse class="cls-2" cx="1175.12" cy="634.23" rx="13.05" ry="12.51"/><ellipse class="cls-2" cx="954.34" cy="779.77" rx="6.01" ry="5.76"/><polyline class="cls-2" points="1107.82 773.34 1211.84 875.86 1213.94 873.73 1109.92 771.2"/><polyline class="cls-2" points="955.21 883.61 1109.74 773.49 1108 771.05 953.47 881.17"/><polyline class="cls-2" points="954.41 781.26 1108.94 773.77 1108.8 770.77 954.26 778.27"/><polyline class="cls-2" points="774.39 818.64 954.64 781.24 954.03 778.3 773.78 815.7"/><polyline class="cls-2" points="954.85 880.98 774.6 815.76 773.58 818.58 953.83 883.8"/><polyline class="cls-2" points="989.32 663.17 1107.85 773.37 1109.89 771.17 991.37 660.97"/><polyline class="cls-2" points="1173.76 633.58 1107.52 771.62 1110.22 772.92 1176.47 634.88"/><polyline class="cls-2" points="1192.31 505.69 1173.63 634.01 1176.6 634.45 1195.28 506.12"/><polyline class="cls-2" points="1049.05 498.39 1193.7 507.4 1193.88 504.41 1049.23 495.39"/><polyline class="cls-2" points="1047.73 500 988.93 661.56 991.75 662.58 1050.55 501.02"/><polyline class="cls-2" points="854.7 576.68 989.53 663.33 991.15 660.81 856.33 574.16"/><polyline class="cls-2" points="929.85 415.87 1048.29 498.12 1050 495.66 931.57 413.41"/><polyline class="cls-2" points="1160.83 327.98 1047.89 496.05 1050.38 497.73 1163.32 329.65"/><polyline class="cls-2" points="1124.82 197.64 1160.62 329.21 1163.52 328.42 1127.72 196.85"/><polyline class="cls-2" points="892.13 230.19 929.24 414.94 932.18 414.34 895.07 229.6"/><polyline class="cls-2" points="1126.06 195.76 893.39 228.41 893.81 231.38 1126.48 198.73"/><polyline class="cls-2" points="773.83 704.44 856.77 576.23 854.25 574.61 771.31 702.81"/><polyline class="cls-2" points="771.07 704.35 772.59 817.19 775.59 817.15 774.07 704.31"/><polyline class="cls-2" points="856.87 573.12 932.06 415.28 929.36 413.99 854.16 571.83"/><polyline class="cls-2" points="614.73 869.83 774.55 818.6 773.63 815.74 613.81 866.98"/><polyline class="cls-2" points="495.42 743.92 613.18 869.43 615.36 867.38 497.61 741.87"/><polyline class="cls-2" points="308.14 640.94 331.93 743.24 334.85 742.56 311.06 640.26"/><polyline class="cls-2" points="334.93 744.04 496.51 744.4 496.51 741.4 334.94 741.04"/><polyline class="cls-2" points="1070.58 -47.78 1124.8 197.57 1127.73 196.92 1073.51 -48.43"/><polyline class="cls-2" points="1289.84 111.2 1125.58 195.91 1126.96 198.58 1291.21 113.87"/><polyline class="cls-2" points="1358.77 327.31 1162.07 327.31 1162.07 330.31 1358.77 330.31"/><polyline class="cls-2" points="1377.74 660.58 1175.32 632.74 1174.91 635.72 1377.34 663.56"/><polyline class="cls-2" points="1333.3 737.5 1108.65 770.79 1109.09 773.75 1333.74 740.47"/><polyline class="cls-2" points="171.29 809.4 247.76 892.72 249.97 890.69 173.5 807.37"/><polyline class="cls-2" points="332.73 741.15 171.82 806.99 172.96 809.77 333.87 743.92"/><polyline class="cls-2" points="393.31 843.49 334.6 741.79 332 743.29 390.71 844.99"/><polyline class="cls-2" points="495.47 741.82 390.96 843.16 393.05 845.32 497.56 743.97"/><polyline class="cls-2" points="308.44 639.65 171.23 807.43 173.56 809.33 310.76 641.55"/><polyline class="cls-2" points="988.91 661.63 952.9 779.33 955.77 780.21 991.78 662.51"/><polyline class="cls-2" points="1176.22 633.22 1050.25 495.88 1048.04 497.9 1174.01 635.24"/><polyline class="cls-2" points="895.02 230.39 950.08 71.83 947.25 70.84 892.18 229.4"/><polyline class="cls-2" points="1124.82 196.87 1047.69 496.52 1050.59 497.26 1127.72 197.62"/><polyline class="cls-2" points="856.06 573.88 1049.69 498.29 1048.6 495.49 854.97 571.08"/><polyline class="cls-2" points="990.06 660.6 773.81 702.15 774.37 705.09 990.63 663.54"/><path class="cls-2" d="M1191.2,456.18c11.35,0,20.56-8.81,20.56-19.67s-9.2-19.67-20.56-19.67-20.56,8.81-20.56,19.67S1179.84,456.18,1191.2,456.18Zm0-34.32c8.46,0,15.31,6.56,15.31,14.65s-6.85,14.65-15.31,14.65-15.31-6.56-15.31-14.65S1182.74,421.86,1191.2,421.86Z"/><path class="cls-2" d="M1191.2,456.18v1.5a22.47,22.47,0,0,0,15.57-6.18,20.58,20.58,0,0,0,0-30,22.72,22.72,0,0,0-31.15,0,20.58,20.58,0,0,0,0,30,22.47,22.47,0,0,0,15.57,6.18v-3a19.47,19.47,0,0,1-13.5-5.35,17.58,17.58,0,0,1,0-25.65,19.72,19.72,0,0,1,27,0,17.58,17.58,0,0,1,0,25.65,19.47,19.47,0,0,1-13.5,5.35Zm0-34.32v1.5a14.11,14.11,0,0,1,9.79,3.87,12.71,12.71,0,0,1,0,18.55,14.3,14.3,0,0,1-19.58,0,12.71,12.71,0,0,1,0-18.55,14.11,14.11,0,0,1,9.79-3.87v-3a17.11,17.11,0,0,0-11.86,4.71,15.71,15.71,0,0,0,0,22.88,17.3,17.3,0,0,0,23.72,0,15.71,15.71,0,0,0,0-22.88,17.11,17.11,0,0,0-11.86-4.71Z"/><ellipse class="cls-2" cx="1191.2" cy="436.51" rx="8.89" ry="8.5"/><path class="cls-2" d="M1182.31,436.51h1.5a6.8,6.8,0,0,1,2.14-4.93,7.67,7.67,0,0,1,10.5,0,6.75,6.75,0,0,1,0,9.86,7.67,7.67,0,0,1-10.5,0,6.8,6.8,0,0,1-2.14-4.93h-3a9.8,9.8,0,0,0,3.07,7.1,10.67,10.67,0,0,0,14.64,0,9.75,9.75,0,0,0,0-14.19,10.67,10.67,0,0,0-14.64,0,9.8,9.8,0,0,0-3.07,7.1Z"/><polyline class="cls-2" points="1049.73 498.27 1191.78 437.89 1190.61 435.13 1048.55 495.51"/><polyline class="cls-2" points="1195.29 505.85 1192.69 436.46 1189.7 436.57 1192.29 505.96"/><polyline class="cls-2" points="173.41 807.28 76.91 717.79 74.87 719.99 171.37 809.48"/><polyline class="cls-2" points="170.93 808.04 120.04 1027.17 122.97 1027.85 173.85 808.72"/><path class="cls-2" d="M154.78,637a17.8,17.8,0,1,0-18.12-17.8A18,18,0,0,0,154.78,637Zm0-31.05a13.26,13.26,0,1,1-13.5,13.25A13.38,13.38,0,0,1,154.78,605.9Z"/><path class="cls-2" d="M154.78,637v.5a18.73,18.73,0,0,0,13.17-5.36,18.07,18.07,0,0,0,0-25.89,18.86,18.86,0,0,0-26.33,0,18.07,18.07,0,0,0,0,25.89,18.73,18.73,0,0,0,13.17,5.36v-1a17.73,17.73,0,0,1-12.47-5.07,17.07,17.07,0,0,1,0-24.46,17.86,17.86,0,0,1,24.93,0,17.07,17.07,0,0,1,0,24.46,17.73,17.73,0,0,1-12.46,5.07Zm0-31.05v.5a13.08,13.08,0,0,1,9.19,3.74,12.59,12.59,0,0,1,0,18,13.17,13.17,0,0,1-18.39,0,12.59,12.59,0,0,1,0-18,13.08,13.08,0,0,1,9.19-3.74v-1a14.08,14.08,0,0,0-9.89,4,13.59,13.59,0,0,0,0,19.46,14.17,14.17,0,0,0,19.79,0,13.59,13.59,0,0,0,0-19.46,14.08,14.08,0,0,0-9.89-4Z"/><ellipse class="cls-2" cx="154.78" cy="619.15" rx="7.84" ry="7.7"/><path class="cls-2" d="M146.95,619.15h.5a7.1,7.1,0,0,1,2.15-5.08,7.44,7.44,0,0,1,10.38,0,7.1,7.1,0,0,1,0,10.17,7.44,7.44,0,0,1-10.38,0,7.1,7.1,0,0,1-2.15-5.08h-1a8.1,8.1,0,0,0,2.44,5.8,8.44,8.44,0,0,0,11.78,0,8.1,8.1,0,0,0,0-11.6,8.44,8.44,0,0,0-11.78,0,8.1,8.1,0,0,0-2.44,5.8Z"/><polyline class="cls-2" points="309.81 639.12 154.99 617.67 154.58 620.64 309.4 642.09"/><polyline class="cls-2" points="152.31 618.23 74.7 717.97 77.07 719.81 154.68 620.07"/><polyline class="cls-2" points="1160.62 329.2 1189.75 436.9 1192.64 436.12 1163.52 328.42"/><polyline class="cls-2" points="772.61 816.9 735.25 1025.28 738.2 1025.81 775.57 817.43"/><path class="cls-2" d="M622.08,795.44c11.21,0,20.3-8.4,20.3-18.77s-9.09-18.77-20.3-18.77-20.3,8.4-20.3,18.77S610.87,795.44,622.08,795.44Zm0-32.75c8.35,0,15.11,6.26,15.11,14s-6.77,14-15.11,14-15.11-6.26-15.11-14S613.73,762.7,622.08,762.7Z"/><path class="cls-2" d="M622.08,795.44v.5a21.59,21.59,0,0,0,14.69-5.63,18.29,18.29,0,0,0,0-27.28,22,22,0,0,0-29.38,0,18.29,18.29,0,0,0,0,27.28,21.59,21.59,0,0,0,14.69,5.63v-1a20.59,20.59,0,0,1-14-5.36,17.29,17.29,0,0,1,0-25.81,21,21,0,0,1,28,0,17.29,17.29,0,0,1,0,25.81,20.59,20.59,0,0,1-14,5.36Zm0-32.75v.5a15.21,15.21,0,0,1,10.35,4,12.75,12.75,0,0,1,0,19,15.5,15.5,0,0,1-20.7,0,12.75,12.75,0,0,1,0-19,15.21,15.21,0,0,1,10.35-4v-1a16.2,16.2,0,0,0-11,4.23,13.75,13.75,0,0,0,0,20.5,16.5,16.5,0,0,0,22.05,0,13.75,13.75,0,0,0,0-20.5,16.2,16.2,0,0,0-11-4.23Z"/><ellipse class="cls-2" cx="622.08" cy="776.68" rx="8.77" ry="8.11"/><path class="cls-2" d="M613.3,776.68h.5a7.3,7.3,0,0,1,2.41-5.37,8.79,8.79,0,0,1,11.73,0,7.19,7.19,0,0,1,0,10.74,8.79,8.79,0,0,1-11.73,0,7.3,7.3,0,0,1-2.41-5.37h-1a8.3,8.3,0,0,0,2.73,6.1,9.79,9.79,0,0,0,13.09,0,8.19,8.19,0,0,0,0-12.21,9.79,9.79,0,0,0-13.09,0,8.3,8.3,0,0,0-2.73,6.1Z"/><polyline class="cls-2" points="774.48 815.72 496.9 741.45 496.12 744.35 773.7 818.62"/><polyline class="cls-2" points="615.76 868.53 623.57 776.8 620.58 776.55 612.77 868.28"/><polyline class="cls-2" points="954.92 778.38 773.15 701.18 771.98 703.94 953.75 781.15"/><polyline class="cls-2" points="1174.89 632.75 990.12 660.59 990.57 663.55 1175.34 635.71"/><ellipse class="cls-2" cx="893.29" cy="230.31" rx="23.87" ry="22.55"/><ellipse class="cls-2" cx="174.3" cy="809.22" rx="17.85" ry="16.86"/><circle class="cls-2" cx="75.89" cy="718.89" r="10.39"/><polyline class="cls-2" points="75.68 717.4 -44.21 734.51 -43.79 737.49 76.1 720.37"/><polyline class="cls-2" points="-32.06 612.51 74.83 719.95 76.95 717.83 -29.94 610.4"/><circle class="cls-2" cx="948.67" cy="70.73" r="11.5"/><polyline class="cls-2" points="949.91 69.9 885.91 -25.5 883.42 -23.83 947.42 71.57"/><polyline class="cls-2" points="1071 -49.19 947.62 70.26 949.71 72.41 1073.09 -47.03"/></g></g></svg>
